<?xml version="1.0" standalone="no"?>
<!DOCTYPE svg PUBLIC "-//W3C//DTD SVG 20010904//EN"
 "http://www.w3.org/TR/2001/REC-SVG-20010904/DTD/svg10.dtd">
<svg version="1.0" xmlns="http://www.w3.org/2000/svg"
 width="362.000000pt" height="1110.000000pt" viewBox="0 0 362.000000 1110.000000"
 preserveAspectRatio="xMidYMid meet">
<metadata>
Created by potrace 1.15, written by Peter Selinger 2001-2017
</metadata>
<g transform="translate(0.000000,1110.000000) scale(0.100000,-0.100000)"
fill="#000000" stroke="none">
<path d="M1905 10913 c-477 -52 -768 -221 -1031 -598 -112 -162 -143 -241
-219 -566 -54 -235 -113 -342 -213 -391 -39 -19 -63 -23 -147 -23 -55 0 -112
4 -128 8 -37 10 -35 41 6 79 l32 31 -30 -16 c-91 -46 -93 -122 -4 -187 188
-136 691 -115 1081 45 62 25 120 49 129 51 22 7 136 -104 174 -170 16 -27 38
-76 51 -110 23 -64 61 -103 88 -93 24 9 19 25 -11 41 -21 10 -43 44 -83 126
-42 86 -69 127 -114 173 -33 34 -55 62 -49 64 26 9 155 92 228 147 230 172
444 438 549 680 19 43 36 79 38 81 2 2 51 -42 109 -98 77 -75 128 -136 192
-232 l88 -130 -81 -12 c-100 -14 -171 -48 -230 -109 l-45 -46 64 41 c84 54
162 82 243 88 l67 6 45 -91 c48 -95 116 -254 116 -270 0 -6 -17 -6 -45 0 -90
19 -223 -37 -316 -135 -22 -23 -66 -94 -98 -157 -41 -83 -65 -119 -84 -128
-31 -15 -34 -27 -10 -36 28 -11 65 26 84 83 65 189 244 351 388 351 96 0 97
-1 130 -104 41 -128 70 -250 96 -401 13 -71 24 -119 24 -105 2 56 -48 391 -78
520 -17 72 -18 71 62 44 78 -27 134 -33 183 -21 22 6 31 4 31 -5 1 -7 9 -47
18 -88 12 -56 16 -113 13 -223 -3 -160 2 -167 42 -60 33 89 50 215 50 372 0
104 4 151 13 160 7 8 7 11 1 8 -13 -8 -24 23 -24 69 0 61 -42 279 -71 366 -79
242 -242 488 -415 628 -136 109 -264 165 -410 178 l-78 7 -7 34 c-19 94 -77
123 -254 126 -66 2 -138 1 -160 -2z m968 -1123 c102 -98 207 -224 207 -248 0
-31 -135 -142 -173 -142 -10 0 -20 24 -31 67 -14 54 -66 193 -113 301 -4 11 8
12 58 7 74 -6 53 8 -26 19 -45 6 -53 11 -71 44 -11 20 -36 64 -54 97 l-34 59
65 -49 c35 -27 113 -97 172 -155z"/>
<path d="M1277 9149 c-21 -13 -47 -61 -47 -89 0 -58 63 -109 117 -96 16 4 34
7 41 8 9 1 8 6 -4 19 -17 19 -6 33 19 23 8 -3 17 1 20 10 4 9 -3 16 -19 20
-36 9 -57 47 -44 80 5 15 10 29 10 32 0 8 -75 3 -93 -7z"/>
<path d="M2584 9148 c-37 -17 -57 -84 -41 -133 21 -61 155 -74 140 -14 -5 19
-3 21 15 17 26 -7 40 20 14 28 -36 11 -47 22 -50 48 -2 15 1 33 7 40 6 7 8 16
4 19 -10 10 -65 7 -89 -5z"/>
<path d="M3190 8744 c0 -11 -6 -15 -20 -11 -17 4 -27 -9 -65 -82 -55 -107
-179 -265 -333 -423 -137 -141 -249 -228 -376 -293 -122 -62 -70 -47 69 20
284 137 553 371 667 580 31 56 33 58 36 32 3 -24 7 -28 30 -25 23 3 27 8 30
42 4 49 -17 176 -29 176 -5 0 -9 -7 -9 -16z"/>
<path d="M851 8623 c105 -305 210 -441 434 -567 103 -58 112 -75 78 -158 -13
-32 -23 -64 -23 -72 0 -8 -24 -31 -54 -51 -136 -90 -266 -304 -266 -436 0 -29
6 -53 15 -63 8 -8 55 -27 103 -41 100 -31 136 -57 128 -95 -23 -106 -27 -163
-16 -217 27 -132 100 -232 207 -285 118 -58 235 -49 319 25 41 36 102 132 91
144 -3 2 -19 -3 -36 -11 -53 -28 -95 -21 -137 22 -20 20 -45 56 -56 80 -27 59
-13 98 57 158 119 101 127 233 22 350 -48 55 -57 75 -57 137 0 61 -19 125 -55
178 -20 31 -22 42 -15 75 5 22 7 49 3 62 -3 12 0 29 7 37 7 9 11 17 9 19 -2 1
-44 26 -94 55 -113 66 -195 133 -316 258 -177 184 -311 359 -355 467 -37 91
-33 43 7 -71z"/>
<path d="M1469 8442 c35 -32 93 -77 130 -98 36 -21 100 -74 141 -116 96 -99
144 -122 255 -122 108 0 155 22 242 114 37 40 97 89 133 110 63 37 214 160
206 167 -2 2 -32 -12 -67 -31 -131 -71 -226 -82 -330 -40 -53 22 -82 27 -172
30 -100 3 -115 1 -194 -28 -115 -42 -181 -36 -303 24 -47 23 -89 44 -95 46 -5
2 19 -23 54 -56z m674 -88 c43 -4 77 -11 77 -15 0 -15 -73 -30 -175 -36 -104
-6 -231 8 -269 30 -18 11 -13 13 49 18 108 9 234 10 318 3z"/>
<path d="M2185 6588 c-15 -69 -136 -841 -131 -845 2 -3 8 12 11 33 13 74 156
799 161 817 4 12 0 17 -15 17 -13 0 -22 -8 -26 -22z"/>
<path d="M1915 5315 c-5 -2 -102 -11 -214 -21 l-204 -18 -71 -83 c-175 -205
-270 -432 -296 -704 -41 -416 146 -977 471 -1416 60 -80 74 -94 111 -104 62
-18 175 -14 312 10 130 23 194 26 244 12 30 -9 32 -8 32 15 0 44 47 167 126
331 246 512 321 731 343 1004 21 259 -29 486 -156 716 -52 94 -60 102 -92 108
-20 4 -137 31 -261 60 -124 29 -240 56 -257 60 -19 4 -33 13 -33 21 0 13 -29
18 -55 9z"/>
<path d="M2511 3382 c-6 -28 -35 -120 -66 -206 -30 -85 -55 -158 -55 -161 0
-3 32 -5 70 -5 85 0 88 5 66 93 -18 73 -20 164 -6 256 13 76 6 93 -9 23z"/>
<path d="M1971 773 c-38 -145 -34 -262 14 -368 40 -91 69 -100 124 -41 l24 26
39 -35 c21 -19 45 -35 52 -35 36 0 86 134 86 230 0 49 -41 244 -54 257 -2 2
-12 -20 -21 -49 -25 -77 -56 -128 -81 -134 -32 -8 -75 18 -127 76 -39 43 -45
56 -40 81 8 42 -4 36 -16 -8z"/>
</g>
</svg>
